HIERARCHY
ROOT Hips
{
	OFFSET -14.64140 90.27770 -84.91600
	CHANNELS 6 Xposition Yposition Zposition Zrotation Xrotation Yrotation
	JOINT Spine
	{
		OFFSET 0.00000 13.20850 -1.60436
		CHANNELS 3 Zrotation Xrotation Yrotation
		JOINT Spine1
		{
			OFFSET 0.00000 8.61716 0.00000
			CHANNELS 3 Zrotation Xrotation Yrotation
			JOINT Spine2
			{
				OFFSET 0.00000 8.61717 0.00000
				CHANNELS 3 Zrotation Xrotation Yrotation
				JOINT Spine3
				{
					OFFSET 0.00000 8.61717 0.00000
					CHANNELS 3 Zrotation Xrotation Yrotation
					JOINT Neck
					{
						OFFSET 0.00000 11.07920 1.10792
						CHANNELS 3 Zrotation Xrotation Yrotation
						JOINT Neck1
						{
							OFFSET 0.00000 7.08032 0.00000
							CHANNELS 3 Zrotation Xrotation Yrotation
							JOINT Head
							{
								OFFSET 0.00000 7.08031 0.00000
								CHANNELS 3 Zrotation Xrotation Yrotation
								End site
								{
									OFFSET 0.00000 0.00000 0.00000
								}
							}
						}
					}
					JOINT RightShoulder
					{
						OFFSET -0.01000 7.91373 5.19711
						CHANNELS 3 Zrotation Xrotation Yrotation
						JOINT RightArm
						{
							OFFSET -18.41580 0.00000 0.00000
							CHANNELS 3 Zrotation Xrotation Yrotation
							JOINT RightForeArm
							{
								OFFSET -29.11090 0.00000 0.00000
								CHANNELS 3 Zrotation Xrotation Yrotation
								JOINT RightHand
								{
									OFFSET -24.65040 0.00000 0.00000
									CHANNELS 3 Zrotation Xrotation Yrotation
									JOINT RightHandThumb1
									{
										OFFSET -5.35114 -0.85590 3.97906
										CHANNELS 3 Zrotation Xrotation Yrotation
										JOINT RightHandThumb2
										{
											OFFSET -4.52789 0.00000 0.00000
											CHANNELS 3 Zrotation Xrotation Yrotation
											JOINT RightHandThumb3
											{
												OFFSET -2.46976 0.00000 0.00000
												CHANNELS 3 Zrotation Xrotation Yrotation
												End site
												{
													OFFSET 0.00000 0.00000 0.00000
												}
											}
										}
									}
									JOINT RightHandIndex1
									{
										OFFSET -14.26970 0.00000 2.88139
										CHANNELS 3 Zrotation Xrotation Yrotation
										JOINT RightHandIndex2
										{
											OFFSET -5.48836 0.00000 0.00000
											CHANNELS 3 Zrotation Xrotation Yrotation
											JOINT RightHandIndex3
											{
												OFFSET -3.01859 0.00000 0.00000
												CHANNELS 3 Zrotation Xrotation Yrotation
												End site
												{
													OFFSET 0.00000 0.00000 0.00000
												}
											}
										}
									}
									JOINT RightHandMiddle1
									{
										OFFSET -14.26970 0.00000 -0.09147
										CHANNELS 3 Zrotation Xrotation Yrotation
										JOINT RightHandMiddle2
										{
											OFFSET -6.17441 0.00000 0.00000
											CHANNELS 3 Zrotation Xrotation Yrotation
											JOINT RightHandMiddle3
											{
												OFFSET -3.56743 0.00000 0.00000
												CHANNELS 3 Zrotation Xrotation Yrotation
												End site
												{
													OFFSET 0.00000 0.00000 0.00000
												}
											}
										}
									}
									JOINT RightHandRing1
									{
										OFFSET -12.69180 0.00000 -3.06433
										CHANNELS 3 Zrotation Xrotation Yrotation
										JOINT RightHandRing2
										{
											OFFSET -5.62556 0.00000 0.00000
											CHANNELS 3 Zrotation Xrotation Yrotation
											JOINT RightHandRing3
											{
												OFFSET -3.56744 0.00000 0.00000
												CHANNELS 3 Zrotation Xrotation Yrotation
												End site
												{
													OFFSET 0.00000 0.00000 0.00000
												}
											}
										}
									}
									JOINT RightHandPinky1
									{
										OFFSET -11.11390 0.00000 -6.03719
										CHANNELS 3 Zrotation Xrotation Yrotation
										JOINT RightHandPinky2
										{
											OFFSET -4.52789 0.00000 0.00000
											CHANNELS 3 Zrotation Xrotation Yrotation
											JOINT RightHandPinky3
											{
												OFFSET -2.46976 0.00000 0.00000
												CHANNELS 3 Zrotation Xrotation Yrotation
												End site
												{
													OFFSET 0.00000 0.00000 0.00000
												}
											}
										}
									}
								}
							}
						}
					}
					JOINT LeftShoulder
					{
						OFFSET 0.01000 7.91373 5.19711
						CHANNELS 3 Zrotation Xrotation Yrotation
						JOINT LeftArm
						{
							OFFSET 18.41580 0.00000 0.00000
							CHANNELS 3 Zrotation Xrotation Yrotation
							JOINT LeftForeArm
							{
								OFFSET 29.11090 0.00000 0.00000
								CHANNELS 3 Zrotation Xrotation Yrotation
								JOINT LeftHand
								{
									OFFSET 24.65040 0.00000 0.00000
									CHANNELS 3 Zrotation Xrotation Yrotation
									JOINT LeftHandThumb1
									{
										OFFSET 5.35114 -0.85590 3.97906
										CHANNELS 3 Zrotation Xrotation Yrotation
										JOINT LeftHandThumb2
										{
											OFFSET 4.52789 0.00000 0.00000
											CHANNELS 3 Zrotation Xrotation Yrotation
											JOINT LeftHandThumb3
											{
												OFFSET 2.46977 0.00000 0.00000
												CHANNELS 3 Zrotation Xrotation Yrotation
												End site
												{
													OFFSET 0.00000 0.00000 0.00000
												}
											}
										}
									}
									JOINT LeftHandIndex1
									{
										OFFSET 14.26970 0.00000 2.88139
										CHANNELS 3 Zrotation Xrotation Yrotation
										JOINT LeftHandIndex2
										{
											OFFSET 5.48836 0.00000 0.00000
											CHANNELS 3 Zrotation Xrotation Yrotation
											JOINT LeftHandIndex3
											{
												OFFSET 3.01859 0.00000 0.00000
												CHANNELS 3 Zrotation Xrotation Yrotation
												End site
												{
													OFFSET 0.00000 0.00000 0.00000
												}
											}
										}
									}
									JOINT LeftHandMiddle1
									{
										OFFSET 14.26970 0.00000 -0.09147
										CHANNELS 3 Zrotation Xrotation Yrotation
										JOINT LeftHandMiddle2
										{
											OFFSET 6.17440 0.00000 0.00000
											CHANNELS 3 Zrotation Xrotation Yrotation
											JOINT LeftHandMiddle3
											{
												OFFSET 3.56744 0.00000 0.00000
												CHANNELS 3 Zrotation Xrotation Yrotation
												End site
												{
													OFFSET 0.00000 0.00000 0.00000
												}
											}
										}
									}
									JOINT LeftHandRing1
									{
										OFFSET 12.69180 0.00000 -3.06433
										CHANNELS 3 Zrotation Xrotation Yrotation
										JOINT LeftHandRing2
										{
											OFFSET 5.62556 0.00000 0.00000
											CHANNELS 3 Zrotation Xrotation Yrotation
											JOINT LeftHandRing3
											{
												OFFSET 3.56744 0.00000 0.00000
												CHANNELS 3 Zrotation Xrotation Yrotation
												End site
												{
													OFFSET 0.00000 0.00000 0.00000
												}
											}
										}
									}
									JOINT LeftHandPinky1
									{
										OFFSET 11.11390 0.00000 -6.03719
										CHANNELS 3 Zrotation Xrotation Yrotation
										JOINT LeftHandPinky2
										{
											OFFSET 4.52789 0.00000 0.00000
											CHANNELS 3 Zrotation Xrotation Yrotation
											JOINT LeftHandPinky3
											{
												OFFSET 2.46976 0.00000 0.00000
												CHANNELS 3 Zrotation Xrotation Yrotation
												End site
												{
													OFFSET 0.00000 0.00000 0.00000
												}
											}
										}
									}
								}
							}
						}
					}
					JOINT pCube4
					{
						OFFSET 0.00000 10.91090 1.10792
						CHANNELS 3 Zrotation Xrotation Yrotation
						End site
						{
							OFFSET 0.00000 0.00000 0.00000
						}
					}
				}
			}
		}
	}
	JOINT RightUpLeg
	{
		OFFSET -9.98441 0.00000 0.00000
		CHANNELS 3 Zrotation Xrotation Yrotation
		JOINT RightLeg
		{
			OFFSET 0.00000 -42.11790 0.00000
			CHANNELS 3 Zrotation Xrotation Yrotation
			JOINT RightFoot
			{
				OFFSET 0.00000 -45.00020 -0.00001
				CHANNELS 3 Zrotation Xrotation Yrotation
				JOINT RightForeFoot
				{
					OFFSET 0.00000 -3.74820 0.00000
					CHANNELS 3 Zrotation Xrotation Yrotation
					JOINT RightToeBase
					{
						OFFSET 0.00000 0.06325 14.43120
						CHANNELS 3 Zrotation Xrotation Yrotation
						End site
						{
							OFFSET 0.00000 0.00000 0.00000
						}
					}
				}
			}
		}
	}
	JOINT LeftUpLeg
	{
		OFFSET 9.98441 0.00000 0.00000
		CHANNELS 3 Zrotation Xrotation Yrotation
		JOINT LeftLeg
		{
			OFFSET 0.00000 -42.11800 0.00000
			CHANNELS 3 Zrotation Xrotation Yrotation
			JOINT LeftFoot
			{
				OFFSET 0.00000 -45.00070 0.00000
				CHANNELS 3 Zrotation Xrotation Yrotation
				JOINT LeftForeFoot
				{
					OFFSET 0.00000 -3.74824 0.00000
					CHANNELS 3 Zrotation Xrotation Yrotation
					JOINT LeftToeBase
					{
						OFFSET 0.00000 0.06325 14.43110
						CHANNELS 3 Zrotation Xrotation Yrotation
						End site
						{
							OFFSET 0.00000 0.00000 0.00000
						}
					}
				}
			}
		}
	}
}
MOTION
Frames: 4
Frame Time: 0.050000
-0.018411667142383962 0.02866240511239347 -0.00502379553925653 -0.02745522194958083 -0.023709851743038215 -0.00585677927518303 -0.7022993663369623 2.620285205925085 -1.2959288306566596 -0.9605183377520192 3.719179941659041 0.37765242454984915 -1.082106351447632 -1.1522624480935844 -0.4803632044131614 0.4800825778432945 0.12638163555001855 -0.6638422338209704 0.9190705138939758 11.317079978968986 -3.348090708196217 0.12751639454688987 -1.6580994024634867 -9.264930103068801 1.3409144962013964 -18.256769964502414 -0.831770081784129 -6.765156756266304 2.4527888439493855 -14.88919556487031 78.73234253195596 -1.5314546801770543 15.170230131845496 35.05168107558653 -0.9459652528434834 97.64226079542708 3.4783256433177097 -0.012635705603250693 -1.6737468762733905 4.557585173229709 -0.15911948450678715 -1.5798710590198326 -0.006655021778056835 -0.04244682072240336 -56.23171845332396 -0.031116340391753324 -0.03125313806768419 -56.270860419422256 -38.77309851355621 0.038970343535158644 0.013640170651987998 -0.005631950651994213 0.01546771417154144 -0.03891215570894724 -0.03276040813927922 0.0339395368463198 0.040297109402468584 -36.654712533824 0.022159848762715803 0.028367978499650805 -0.03593736153395005 -0.00979227585574112 -0.0283931396189508 -0.0027126394276551363 0.023659844722160577 0.02462631781728883 -19.77010746304074 0.02613913692556384 -0.02985075740796687 0.04022127255514661 -0.015576349467841486 6.022338454986234e-05 -0.0006159503191727097 -0.011392157917711051 0.018411206347131268 24.079861282130892 -0.00016847739736067975 0.048669803806714554 28.872551298095892 0.01700264622696574 -0.020043675626293823 28.87725629769623 0.0014722315576477412 -0.021177550595649176 5.3298458069913615 1.4354738087192476 11.915766242343787 -71.41753838168412 28.143670652636402 -7.356626843073238 -18.063243782920573 -3.330188202114027 -85.01397779317057 -9.183190037059486 -4.5846492665641785 3.5911782782877517 -0.47774721155325056 0.09147203151476224 -8.094605822986662 0.025561801742590994 -0.042444101287772706 44.59055789504013 -0.0012832101729398707 -0.011526832196549446 44.561696917231025 12.45547232342931 0.020702639646936426 -0.0010957794237761067 -0.02638576610799553 0.027051612530329634 0.017945824810499642 -0.012964242602988396 -0.02339174207563001 0.0015533181334833454 11.13303544007059 0.028401637734233737 0.00865148374472846 0.025370527602241184 -0.025617223897917415 0.03262698288981463 -0.0459190164528408 -0.0387793158704702 0.019092851527225174 4.810095809885792 0.03121379158333213 0.012412098520699544 -0.005313694059769859 -0.01846425793017242 -0.013805695682517431 -0.0023581547098990205 0.0059399898503492326 -0.024449708143074525 -5.6345158232133885 0.006976141814879914 -0.02939125219800698 -6.695121735361743 -0.021010791831444813 -0.0027957275889342083 -6.744424927775456 -0.023891305373189644 -0.030265781609982938 -0.004676289440696292 0.03927816254178855 -0.008641969945351937 8.026064804085554 3.5105869918311647 -19.193166217253832 0.034769236965755235 10.358159406467694 -0.031584205952632505 -5.601707312549283 -15.677130112679912 3.178100092174789 -0.03048711238230168 0.018114640596064716 0.03469996321070112 0.011191267152855969 4.649318086120235 -0.01707208375499062 12.448961841733361 -8.272162995080935 6.8947950331017855 0.03864939058637409 46.3579254636887 -0.019204879352513044 -4.341352782665181 -14.785902477737668 -3.8223733229750096 0.01947088893826693 0.010948978730271173 -0.007641739459270921 -0.04017362209806512 -10.77163913176894 0.041327080785495476 
0.047699618371452604 -0.023948154817928596 -0.03268303523227833 -0.047411112110566464 -0.02174110802101463 0.013835120752841497 -0.9355703852320779 2.4812782923325933 -1.22251464392783 -0.9557544159919608 3.685474675672478 0.40116907951000175 -1.1675341614795114 -1.1775537247327894 -0.45887547637452325 0.38612078872645716 0.16596357048995256 -0.6902341296517496 0.9856756103592814 11.169881139864085 -3.2955988780496437 0.17279551738793517 -1.6791973838716654 -9.099513447237031 1.2719337802185273 -18.14539555374003 -0.7890783422473534 -6.699592891843117 2.447563928907074 -14.820841431293848 77.79076889167516 -1.2170584324732445 15.560542344462663 30.600089735135807 -0.7545367140221182 99.60825250410439 3.0373548980037306 0.06802450149097508 -1.3603133762164714 4.505375943015157 -0.109137915368269 -1.595381421206005 0.006710434281698212 0.035720573716241176 -56.25987175458269 -0.019773885534490367 0.0018175074616431537 -56.21574599352492 -38.753000177348525 0.024404147391812406 0.0014777802186413426 0.047240319883634814 -0.03442680358002767 0.014086246214700582 -0.03638520859377425 -0.0025022504740770035 0.04593281766095944 -36.68956137367782 -0.030399623608562833 -0.040513312606826966 0.0025065541534181157 -0.030791327344274914 0.005260208076974519 -0.004135652750394392 -0.002445275228468039 0.0009987302097484157 -19.797194439321707 0.0019131506409235638 0.006942671559235448 -0.027527400628236002 -0.004870950891716787 0.02545878642252677 -0.04763031829270997 -0.03677185005442417 -0.021000997817610147 24.046755573703766 0.03914044370305155 0.029446953330622347 28.845336644755214 0.03975606094222039 0.0172285260032295 28.858926692989172 -0.04428832113848175 0.004305818226756924 5.188194408444823 1.3651065056329843 11.89962056254421 -71.06054229810512 29.118947854940192 -7.539604322908478 -13.24622792040662 -3.638832973937345 -85.47188656903366 -9.283175960386082 -4.398014699650378 3.356589290011017 -0.4441827003063374 0.05099951949848068 -8.159776280481248 -0.015444796030976768 0.04003559713891616 44.57414055206319 -0.042760029306836936 -0.018492615955730197 44.525773099354716 12.427518480683739 0.008670269836335535 -0.031767973457042784 0.0016690623032912784 0.0362022882428287 -0.02841935556608161 -0.013451188176734435 -0.02789298279178154 0.025329433524043717 11.08762296501663 -0.012120874883758273 0.020498004634925487 -0.005319089976057205 0.009588638203388015 0.004813748935080596 -0.0464520494405479 0.041993178374600156 0.030223860480976875 4.79459404599834 0.01772644734183983 0.045698991821488136 0.016964383140998445 -0.0009916171880360277 -0.006302698518296444 0.02146622262997328 -0.037313319311245055 -0.04181179035989411 -5.610770655543113 0.011615767448963884 0.007952213673846839 -6.770384113083574 -0.019485808305344736 -0.01720072606793399 -6.686797176052225 -0.0040176782122226945 -0.03613415871895269 -0.020487679957770233 0.033079059744164495 -0.008714751497412708 8.054965146878207 3.5392697506967217 -19.23168560431537 -0.010540633614311961 10.431435392213162 -0.016598996590607817 -5.6198372517417505 -15.696164007579295 3.1537655541537153 0.047799116363115145 -0.015438872061978942 0.024338825867821712 0.008558216818522419 4.7274961790363585 0.007183790145030788 12.435492315373482 -8.258502362396543 6.907041424256422 -0.009568349351705696 46.405393386410005 0.017456296765515644 -4.338243360892743 -14.7580929097187 -3.8061335826507148 -0.00933949699413587 -0.04753121095162473 -0.017409339601172035 0.02774448027011423 -10.792028167294147 -0.04537264631951994 
0.01009913867024549 0.020649318992865914 0.043231384143294097 0.022233029560011282 0.008415521169375459 -0.047485517371697296 -1.0962301706823852 2.2635097230215564 -1.2311675528285615 -0.9124678239178423 3.643799968246619 0.3707730805663964 -1.128488210575916 -1.1861847306412614 -0.41792000644485855 0.34482409797594865 0.07625796207549192 -0.7151336757159579 0.9511293813763568 11.175619001334425 -3.1619510768188217 0.1685507460472877 -1.646640954564304 -8.818053615610252 1.2975581564824799 -18.07957673390288 -0.766669678356136 -6.615384573398823 2.501551048736197 -14.72904045209927 77.15059732212679 -0.5011338595275401 16.023343135049352 27.216135267613698 -0.8426138904785017 101.10223606171488 2.722529377054031 0.06812737277351333 -1.0327912103599788 4.535260011150639 -0.12986818061410046 -1.565490087446322 0.012640400145328867 -0.024943616669665974 -56.25148000958881 -0.03966253074330639 0.027191922720849006 -56.23026325189724 -38.74211205079687 0.01692687881788331 0.007577519565658517 -0.040416199636545365 -0.047258546105725587 -0.04442967746256093 -0.006948846898738772 0.04039040655971727 0.021716613931375698 -36.693806100847056 0.015791117847557556 0.003939993072156754 -0.01794203683017342 0.008769867121751172 0.0351368964088117 0.0020505686008926937 -0.00792308517357002 -0.030740898134686428 -19.773775532826225 -0.037170438628965685 0.009856949784062121 0.007248618193492151 -0.02130026582176337 0.0056635352981899145 -0.026557816389889667 -0.036202691069892115 0.04270559955692767 24.06934830693804 -0.018601145748573952 -0.010653936471996684 28.869037738978317 0.01896760866175403 -0.02988604338578753 28.837409112673313 0.0011786399168179336 0.00852807434732194 5.2062018920054225 1.348542683434467 11.830648329965143 -70.93544229478589 29.903291926423723 -7.922530791826885 -10.135713110728762 -3.8597712901778682 -86.28761588294431 -9.434008335036113 -4.291736791436686 3.186506915768524 -0.5038112544123889 0.06999556211974743 -8.149490933634643 -0.010460392986531593 0.031738639090935765 44.57915071723473 -0.008354241507823172 0.029229437000322038 44.55605595237256 12.439712718662076 0.004214334686655204 -0.011988487711587508 0.039063906498194245 0.03573487667536597 0.012883070095443285 0.031933096217207586 -0.0402699178784187 -0.022672659801369604 11.09345278262428 -0.023492558125446133 -0.002401892473137239 0.017446259214353076 0.03680225032110599 0.02461299944615234 -0.007064190882153059 -0.040534741495635816 0.03272905874563019 4.729874580525871 -0.042643225501582 -0.045161705380553134 0.022297782959673274 -0.023975991531194316 0.004651112171997366 -0.039603017838506956 -0.046752749109885174 0.011123590013227994 -5.610585127259541 -0.04724378867538881 -0.04666009862838053 -6.746499054369846 -0.013749427641881978 0.0222619732397851 -6.738410786192163 -0.03688772467169531 -0.005294258590211552 -0.04600900393280397 -0.049442448613128 -0.03154370758667964 8.006544980817468 3.5235460101037983 -19.175553368413713 0.037974722610674846 10.374627599170005 -0.020956693289245137 -5.602110158412696 -15.62382553225663 3.2078812930501517 0.032495614088647234 -0.008891197308739607 0.006224394608997333 0.012234838583714665 4.69236422567946 -0.02766863362195859 12.451395504410506 -8.246116538674807 6.847696930608648 0.048258580326170954 46.378154865375976 -0.03126169993910999 -4.365959924556942 -14.750146908391951 -3.846233682902536 0.04117987364675812 -0.021438094412175604 -0.012519936490229353 -0.011439690993370622 -10.747436658907418 0.03561576891306117 
-0.02102902199763978 0.04218954108514155 -0.00327789763705158 0.004200255590117336 0.021314464968193766 -0.02870916305574714 -1.266693731892773 2.1172745346596527 -1.181947462740118 -0.8766671538619357 3.6685490035351367 0.39946698718668094 -1.1906426992682007 -1.2741683992534338 -0.3753156062906774 0.297482744423771 0.09167363610322715 -0.6572784132187509 0.8982971167809508 11.198037170164966 -3.022750209544808 0.20190654996801408 -1.5116423313321123 -8.617206412809264 1.2480248098733553 -17.961747352135916 -0.8129896454158779 -6.699059329184947 2.485020359809601 -14.680931594290236 76.92992581926454 -0.22191966413833247 16.86393578311345 25.186288274831416 -0.7724015307236568 102.0010269684784 2.638859163739929 0.07645193389142454 -0.8441111269937869 4.511518591753218 -0.13439727067704088 -1.5475052400041767 -0.012729060836930726 0.019487924269416257 -56.22199188661967 -0.021796350113076682 -0.040193184345747944 -56.216426489764245 -38.739413037239736 -0.017903149566105166 -0.0045313438820476625 0.011684237255491637 0.04195388708688144 -0.024561674795484625 -0.027324412397928825 -0.01749527424775288 -0.039600896991785234 -36.665981021399084 0.00470640989664367 0.007270921735019528 -0.04214759474604244 0.02089945662399386 0.039318062779020925 -0.040750550367498764 0.02827050354238644 -0.047397829034103375 -19.734990552305256 0.03735374379239364 0.04343019209604255 -0.02752566652409716 -0.0299527541114143 -0.04387240470784046 0.012131992026971933 -0.010186181967169446 -0.020168458059669752 24.065651478221778 -0.01454018965712944 0.014083538450082119 28.82533016249232 -0.015696484543413464 0.0005671810856798359 28.899910069369785 0.03777544755341451 -0.02412171698650881 5.1954468792696815 1.385470908694834 11.828677545254315 -70.852102412429 30.32598081797193 -8.1523967439803 -8.674531221336501 -3.8596317502977375 -87.57409168685848 -9.459348963604674 -4.135012197741504 3.0130913417849534 -0.49628221235058256 0.08182284706840603 -8.166153739314328 0.033359546800616396 -0.025379537747430864 44.53716994139271 0.04140689723995988 0.03944676846772736 44.60270357181838 12.440716535309663 -0.02284301662567272 0.043615087832450154 0.03859813502622574 -0.007568513610797502 -0.002582136259317382 0.043497037832799866 0.03981167796762342 -0.026987444915384906 11.122703339512013 0.0243059834661305 -0.02943189780999849 -0.01640530979537662 -0.01703067933660821 0.049203044264613326 0.012256026594862449 0.0004649220143856623 -0.020087118516526527 4.75965242949048 0.01697197802089561 -0.018200018768158004 -0.018883136293554977 0.043828596197355185 -0.04453470665825565 0.0042303851775125694 0.021348575058034433 -0.035204355064141366 -5.589547440757416 0.04323115931856346 0.034994288033046404 -6.716488108871606 0.0006280671907709947 0.01577057294890572 -6.722270338024776 0.010374820986527743 -0.02754461196668576 -0.004278699670273004 0.04131251318627861 -0.037018461201706064 8.021778365827144 3.512171621185064 -19.267886340711314 0.019336332546873957 10.397037636970218 0.047834044173695425 -5.630983161910903 -15.634924788639989 3.220003129637826 0.012274989978475566 0.003841933360859967 -0.03147076456870631 -0.030822510636940515 4.744718591382202 0.03616741234978363 12.494076475637032 -8.282245054085971 6.85126933623001 -0.007332306102839551 46.347295297526934 -0.008374271319670296 -4.331450239855355 -14.704622204166906 -3.8040706373672855 0.030958114407274757 0.02281349167540676 0.04872114602619677 0.03548982056115334 -10.710454408348719 -0.012326001909275679 
